<svg width="16" height="16" viewBox="0 0 16 16" fill="none" xmlns="http://www.w3.org/2000/svg">
<path d="M13.3333 6.66666C13.3333 6.48985 13.2631 6.32028 13.1381 6.19526C13.013 6.07024 12.8435 6 12.6667 6C12.4899 6 12.3203 6.07024 12.1953 6.19526C12.0702 6.32028 12 6.48985 12 6.66666H13.3333ZM4 6.66666C4 6.48985 3.92976 6.32028 3.80474 6.19526C3.67971 6.07024 3.51014 6 3.33333 6C3.15652 6 2.98695 6.07024 2.86193 6.19526C2.73691 6.32028 2.66667 6.48985 2.66667 6.66666H4ZM13.5287 8.47133C13.6544 8.59277 13.8228 8.65997 13.9976 8.65845C14.1724 8.65693 14.3396 8.58682 14.4632 8.46321C14.5868 8.3396 14.6569 8.1724 14.6585 7.9976C14.66 7.8228 14.5928 7.6544 14.4713 7.52866L13.5287 8.47133ZM8 2L8.47133 1.52866C8.34631 1.40368 8.17678 1.33347 8 1.33347C7.82322 1.33347 7.65369 1.40368 7.52867 1.52866L8 2ZM1.52867 7.52866C1.46499 7.59016 1.41421 7.66373 1.37927 7.74506C1.34433 7.8264 1.32594 7.91388 1.32517 8.0024C1.3244 8.09092 1.34127 8.1787 1.37479 8.26063C1.40831 8.34256 1.45781 8.417 1.5204 8.47959C1.583 8.54219 1.65743 8.59169 1.73936 8.62521C1.8213 8.65873 1.90908 8.6756 1.9976 8.67483C2.08612 8.67406 2.1736 8.65567 2.25494 8.62073C2.33627 8.58579 2.40984 8.535 2.47133 8.47133L1.52867 7.52866ZM4.66667 14.6667H11.3333V13.3333H4.66667V14.6667ZM13.3333 12.6667V6.66666H12V12.6667H13.3333ZM4 12.6667V6.66666H2.66667V12.6667H4ZM14.4713 7.52866L8.47133 1.52866L7.52867 2.47133L13.5287 8.47133L14.4713 7.52866ZM7.52867 1.52866L1.52867 7.52866L2.47133 8.47133L8.47133 2.47133L7.52867 1.52866ZM11.3333 14.6667C11.8638 14.6667 12.3725 14.456 12.7475 14.0809C13.1226 13.7058 13.3333 13.1971 13.3333 12.6667H12C12 12.8435 11.9298 13.013 11.8047 13.1381C11.6797 13.2631 11.5101 13.3333 11.3333 13.3333V14.6667ZM4.66667 13.3333C4.48986 13.3333 4.32029 13.2631 4.19526 13.1381C4.07024 13.013 4 12.8435 4 12.6667H2.66667C2.66667 13.1971 2.87738 13.7058 3.25245 14.0809C3.62753 14.456 4.13623 14.6667 4.66667 14.6667V13.3333Z" fill="black"/>
</svg>
