<svg width="18" height="18" viewBox="0 0 18 18" fill="none" xmlns="http://www.w3.org/2000/svg">
<path d="M14.25 3.75C14.25 2.925 13.575 2.25 12.75 2.25H10.5V3.75H12.75V5.7375L10.125 9H7.5V5.25H4.5C2.8425 5.25 1.5 6.5925 1.5 8.25V10.5H3C3 11.745 4.005 12.75 5.25 12.75C6.495 12.75 7.5 11.745 7.5 10.5H10.875L14.25 6.2625V3.75ZM5.25 11.25C4.8375 11.25 4.5 10.9125 4.5 10.5H6C6 10.9125 5.6625 11.25 5.25 11.25ZM3.75 3H7.5V4.5H3.75V3ZM14.25 8.25C13.005 8.25 12 9.255 12 10.5C12 11.745 13.005 12.75 14.25 12.75C15.495 12.75 16.5 11.745 16.5 10.5C16.5 9.255 15.495 8.25 14.25 8.25ZM14.25 11.25C13.8375 11.25 13.5 10.9125 13.5 10.5C13.5 10.0875 13.8375 9.75 14.25 9.75C14.6625 9.75 15 10.0875 15 10.5C15 10.9125 14.6625 11.25 14.25 11.25ZM5.25 15H8.25V13.5L12.75 15.75H9.75V17.25L5.25 15Z" fill="#233D4D"/>
</svg>
