<svg width="26" height="26" viewBox="0 0 26 26" fill="none" xmlns="http://www.w3.org/2000/svg">
<path d="M19 25C19.5304 25 20.0391 24.7893 20.4142 24.4142C20.7893 24.0391 21 23.5304 21 23C21 22.4696 20.7893 21.9609 20.4142 21.5858C20.0391 21.2107 19.5304 21 19 21C18.4696 21 17.9609 21.2107 17.5858 21.5858C17.2107 21.9609 17 22.4696 17 23C17 23.5304 17.2107 24.0391 17.5858 24.4142C17.9609 24.7893 18.4696 25 19 25ZM8.33333 25C8.86377 25 9.37247 24.7893 9.74755 24.4142C10.1226 24.0391 10.3333 23.5304 10.3333 23C10.3333 22.4696 10.1226 21.9609 9.74755 21.5858C9.37247 21.2107 8.86377 21 8.33333 21C7.8029 21 7.29419 21.2107 6.91912 21.5858C6.54405 21.9609 6.33333 22.4696 6.33333 23C6.33333 23.5304 6.54405 24.0391 6.91912 24.4142C7.29419 24.7893 7.8029 25 8.33333 25ZM1.94667 4.2H22.232C24.0693 4.2 25.396 5.89333 24.892 7.59733L22.6867 15.064C22.3467 16.2107 21.2613 17 20.0267 17H7.816C6.58 17 5.49333 16.2093 5.15467 15.064L1.94667 4.2ZM1.94667 4.2L1 1Z" fill="#FC5B00"/>
<path d="M1.94667 4.2H22.232C24.0693 4.2 25.396 5.89333 24.892 7.59733L22.6867 15.064C22.3467 16.2107 21.2613 17 20.0267 17H7.816C6.58 17 5.49333 16.2093 5.15467 15.064L1.94667 4.2ZM1.94667 4.2L1 1M19 25C19.5304 25 20.0391 24.7893 20.4142 24.4142C20.7893 24.0391 21 23.5304 21 23C21 22.4696 20.7893 21.9609 20.4142 21.5858C20.0391 21.2107 19.5304 21 19 21C18.4696 21 17.9609 21.2107 17.5858 21.5858C17.2107 21.9609 17 22.4696 17 23C17 23.5304 17.2107 24.0391 17.5858 24.4142C17.9609 24.7893 18.4696 25 19 25ZM8.33333 25C8.86377 25 9.37247 24.7893 9.74755 24.4142C10.1226 24.0391 10.3333 23.5304 10.3333 23C10.3333 22.4696 10.1226 21.9609 9.74755 21.5858C9.37247 21.2107 8.86377 21 8.33333 21C7.8029 21 7.29419 21.2107 6.91912 21.5858C6.54405 21.9609 6.33333 22.4696 6.33333 23C6.33333 23.5304 6.54405 24.0391 6.91912 24.4142C7.29419 24.7893 7.8029 25 8.33333 25Z" stroke="#FC5B00" stroke-width="2" stroke-linecap="round" stroke-linejoin="round"/>
</svg>
