<svg width="26" height="27" viewBox="0 0 26 27" fill="none" xmlns="http://www.w3.org/2000/svg">
<path d="M1.94667 4.7H22.232C24.0693 4.7 25.396 6.39333 24.892 8.09733L22.6867 15.564C22.3467 16.7107 21.2613 17.5 20.0267 17.5H7.816C6.58 17.5 5.49333 16.7093 5.15467 15.564L1.94667 4.7ZM1.94667 4.7L1 1.5M19 25.5C19.5304 25.5 20.0391 25.2893 20.4142 24.9142C20.7893 24.5391 21 24.0304 21 23.5C21 22.9696 20.7893 22.4609 20.4142 22.0858C20.0391 21.7107 19.5304 21.5 19 21.5C18.4696 21.5 17.9609 21.7107 17.5858 22.0858C17.2107 22.4609 17 22.9696 17 23.5C17 24.0304 17.2107 24.5391 17.5858 24.9142C17.9609 25.2893 18.4696 25.5 19 25.5ZM8.33333 25.5C8.86377 25.5 9.37247 25.2893 9.74755 24.9142C10.1226 24.5391 10.3333 24.0304 10.3333 23.5C10.3333 22.9696 10.1226 22.4609 9.74755 22.0858C9.37247 21.7107 8.86377 21.5 8.33333 21.5C7.8029 21.5 7.29419 21.7107 6.91912 22.0858C6.54405 22.4609 6.33333 22.9696 6.33333 23.5C6.33333 24.0304 6.54405 24.5391 6.91912 24.9142C7.29419 25.2893 7.8029 25.5 8.33333 25.5Z" stroke="#A5AEB3" stroke-width="2" stroke-linecap="round" stroke-linejoin="round"/>
</svg>
