<svg width="24" height="24" viewBox="0 0 24 24" fill="none" xmlns="http://www.w3.org/2000/svg">
<path d="M18.3335 9.33337C20.5426 9.33337 22.3335 7.54251 22.3335 5.33337C22.3335 3.12424 20.5426 1.33337 18.3335 1.33337C16.1244 1.33337 14.3335 3.12424 14.3335 5.33337C14.3335 7.54251 16.1244 9.33337 18.3335 9.33337Z" fill="#FC5B00" stroke="#FC5B00" stroke-width="2" stroke-linecap="round" stroke-linejoin="round"/>
<path d="M5 22.6667C7.20914 22.6667 9 20.8759 9 18.6667C9 16.4576 7.20914 14.6667 5 14.6667C2.79086 14.6667 1 16.4576 1 18.6667C1 20.8759 2.79086 22.6667 5 22.6667Z" fill="#FC5B00" stroke="#FC5B00" stroke-width="2" stroke-linecap="round" stroke-linejoin="round"/>
<path d="M14.3333 14.6667H22.3333V21.3334C22.3333 21.687 22.1929 22.0261 21.9428 22.2762C21.6928 22.5262 21.3536 22.6667 21 22.6667H15.6667C15.313 22.6667 14.9739 22.5262 14.7239 22.2762C14.4738 22.0261 14.3333 21.687 14.3333 21.3334V14.6667ZM1 1.33337H9V8.00004C9 8.35366 8.85952 8.6928 8.60948 8.94285C8.35943 9.1929 8.02029 9.33337 7.66667 9.33337H2.33333C1.97971 9.33337 1.64057 9.1929 1.39052 8.94285C1.14048 8.6928 1 8.35366 1 8.00004V1.33337Z" fill="#FC5B00" stroke="#FC5B00" stroke-width="2" stroke-linecap="round" stroke-linejoin="round"/>
</svg>
