<svg width="24" height="25" viewBox="0 0 24 25" fill="none" xmlns="http://www.w3.org/2000/svg">
<path d="M18.3335 9.83337C20.5426 9.83337 22.3335 8.04251 22.3335 5.83337C22.3335 3.62424 20.5426 1.83337 18.3335 1.83337C16.1244 1.83337 14.3335 3.62424 14.3335 5.83337C14.3335 8.04251 16.1244 9.83337 18.3335 9.83337Z" stroke="#A5AEB3" stroke-width="2" stroke-linecap="round" stroke-linejoin="round"/>
<path d="M5 23.1667C7.20914 23.1667 9 21.3759 9 19.1667C9 16.9576 7.20914 15.1667 5 15.1667C2.79086 15.1667 1 16.9576 1 19.1667C1 21.3759 2.79086 23.1667 5 23.1667Z" stroke="#A5AEB3" stroke-width="2" stroke-linecap="round" stroke-linejoin="round"/>
<path d="M14.3333 15.1667H22.3333V21.8334C22.3333 22.187 22.1929 22.5261 21.9428 22.7762C21.6928 23.0262 21.3536 23.1667 21 23.1667H15.6667C15.313 23.1667 14.9739 23.0262 14.7239 22.7762C14.4738 22.5261 14.3333 22.187 14.3333 21.8334V15.1667ZM1 1.83337H9V8.50004C9 8.85366 8.85952 9.1928 8.60948 9.44285C8.35943 9.6929 8.02029 9.83337 7.66667 9.83337H2.33333C1.97971 9.83337 1.64057 9.6929 1.39052 9.44285C1.14048 9.1928 1 8.85366 1 8.50004V1.83337Z" stroke="#A5AEB3" stroke-width="2" stroke-linecap="round" stroke-linejoin="round"/>
</svg>
