<svg width="38" height="38" viewBox="0 0 38 38" fill="none" xmlns="http://www.w3.org/2000/svg">
<path d="M17.8125 28.5C17.8125 28.8149 17.9376 29.117 18.1603 29.3397C18.383 29.5624 18.6851 29.6875 19 29.6875C19.3149 29.6875 19.617 29.5624 19.8397 29.3397C20.0624 29.117 20.1875 28.8149 20.1875 28.5V23.75C20.1875 23.4351 20.0624 23.133 19.8397 22.9103C19.617 22.6876 19.3149 22.5625 19 22.5625C18.6851 22.5625 18.383 22.6876 18.1603 22.9103C17.9376 23.133 17.8125 23.4351 17.8125 23.75V28.5Z" fill="#A5AEB3"/>
<path fill-rule="evenodd" clip-rule="evenodd" d="M18.9998 1.97913C17.8788 1.97913 16.8608 2.30054 15.754 2.83729C14.6868 3.35663 13.4518 4.12296 11.9113 5.07929L8.6385 7.11071C7.18184 8.01638 6.01175 8.74154 5.11242 9.43029C4.17984 10.1428 3.46417 10.8711 2.94642 11.8164C2.43025 12.7585 2.19909 13.7623 2.08667 14.9482C1.979 16.0961 1.979 17.5021 1.979 19.2644V21.8183C1.979 24.833 1.979 27.2127 2.22125 29.0731C2.46825 30.981 2.99075 32.5216 4.16875 33.7392C5.3515 34.9631 6.85567 35.511 8.72084 35.769C10.5258 36.0208 12.8343 36.0208 15.7413 36.0208H22.2583C25.1653 36.0208 27.4738 36.0208 29.2788 35.769C31.1424 35.511 32.6482 34.9631 33.8325 33.7392C35.0089 32.5216 35.5314 30.981 35.78 29.0731C36.0207 27.2127 36.0207 24.833 36.0207 21.8183V19.2644C36.0207 17.5021 36.0207 16.0977 35.913 14.9482C35.8022 13.7607 35.5694 12.7585 35.0533 11.8164C34.5355 10.8711 33.8183 10.1444 32.8873 9.43029C31.9879 8.73996 30.8194 8.01638 29.3612 7.11071L26.0884 5.07929C24.5478 4.12296 23.3128 3.35663 22.2441 2.83729C21.1405 2.29896 20.1224 1.97913 18.9998 1.97913ZM13.1098 7.13129C14.7169 6.13379 15.849 5.43396 16.7943 4.97321C17.7142 4.52513 18.3665 4.35413 18.9998 4.35413C19.6332 4.35413 20.2855 4.52513 21.2054 4.97321C22.1523 5.43238 23.2828 6.13379 24.8898 7.13129L28.0565 9.09621C29.5781 10.0415 30.6468 10.7049 31.4448 11.316C32.2191 11.9098 32.664 12.399 32.9696 12.9564C33.2752 13.5153 33.4541 14.1692 33.5475 15.1699C33.6441 16.1959 33.6457 17.4895 33.6457 19.323V21.7312C33.6457 24.8504 33.6425 27.0765 33.424 28.766C33.2087 30.4253 32.8018 31.388 32.1257 32.0894C31.4528 32.7845 30.5376 33.1977 28.9527 33.4178C27.3282 33.6426 25.1859 33.6458 22.1665 33.6458H15.8332C12.8122 33.6458 10.6715 33.6426 9.047 33.4178C7.46209 33.1961 6.54692 32.7845 5.87559 32.0878C5.19792 31.388 4.791 30.4253 4.57725 28.766C4.35559 27.0765 4.354 24.852 4.354 21.7312V19.323C4.354 17.4895 4.354 16.1959 4.45217 15.1699C4.54559 14.1692 4.7245 13.5153 5.03009 12.9564C5.33567 12.399 5.78059 11.9098 6.55642 11.316C7.35284 10.7049 8.42159 10.0415 9.94317 9.09621L13.1098 7.13129Z" fill="#A5AEB3"/>
</svg>
