<svg width="33" height="33" viewBox="0 0 33 33" fill="none" xmlns="http://www.w3.org/2000/svg">
<path d="M17.6784 5.58246L25.7441 12.2058C26.1979 12.5771 26.4688 13.1491 26.4688 13.7596V25.8637C26.4688 26.983 25.5915 27.8437 24.5671 27.8437H20.9688V21.3125C20.9688 20.3096 20.5704 19.3478 19.8613 18.6387C19.1521 17.9296 18.1904 17.5312 17.1875 17.5312H15.8125C14.8097 17.5312 13.8479 17.9296 13.1388 18.6387C12.4296 19.3478 12.0313 20.3096 12.0313 21.3125V27.8437H8.43289C7.40851 27.8437 6.53126 26.983 6.53126 25.8637V13.761C6.53126 13.1491 6.80214 12.5785 7.25589 12.2072L15.3216 5.58108C15.6526 5.30575 16.0695 5.155 16.5 5.155C16.9305 5.155 17.3474 5.30713 17.6784 5.58246ZM24.5671 29.9048C26.7809 29.9048 28.5313 28.0692 28.5313 25.8623V13.7596C28.5329 13.1581 28.4011 12.5638 28.1455 12.0193C27.89 11.4749 27.5169 10.9939 27.0531 10.6108L18.9888 3.98746C18.2889 3.40914 17.4093 3.09277 16.5014 3.09277C15.5935 3.09277 14.7139 3.40914 14.014 3.98746L5.94689 10.6122C5.48316 10.9952 5.11008 11.4763 4.8545 12.0207C4.59892 12.5652 4.46718 13.1595 4.46876 13.761V25.8637C4.46876 28.0706 6.21914 29.9062 8.43289 29.9062L24.5671 29.9048Z" fill="#E23338"/>
</svg>
