<svg width="32" height="32" viewBox="0 0 32 32" fill="none" xmlns="http://www.w3.org/2000/svg">
<path fill-rule="evenodd" clip-rule="evenodd" d="M3.35984 10.4306C2.6665 11.6933 2.6665 13.22 2.6665 16.2706V18.3C2.6665 23.5 2.6665 26.1013 4.22917 27.7173C5.79184 29.3333 8.30517 29.3333 13.3332 29.3333H18.6665C23.6945 29.3333 26.2092 29.3333 27.7705 27.7173C29.3318 26.1013 29.3332 23.5013 29.3332 18.3V16.272C29.3332 13.22 29.3332 11.6946 28.6398 10.4306C27.9492 9.16529 26.6838 8.38129 24.1545 6.81063L21.4878 5.15596C18.8145 3.49596 17.4772 2.66663 15.9998 2.66663C14.5225 2.66663 13.1865 3.49596 10.5118 5.15596L7.84517 6.81063C5.31584 8.38129 4.05184 9.16529 3.35984 10.4306ZM14.9998 24C14.9998 24.2652 15.1052 24.5195 15.2927 24.7071C15.4803 24.8946 15.7346 25 15.9998 25C16.2651 25 16.5194 24.8946 16.7069 24.7071C16.8945 24.5195 16.9998 24.2652 16.9998 24V20C16.9998 19.7347 16.8945 19.4804 16.7069 19.2929C16.5194 19.1053 16.2651 19 15.9998 19C15.7346 19 15.4803 19.1053 15.2927 19.2929C15.1052 19.4804 14.9998 19.7347 14.9998 20V24Z" fill="#FC5B00"/>
</svg>
