<svg width="27" height="27" viewBox="0 0 27 27" fill="none" xmlns="http://www.w3.org/2000/svg">
<path d="M10.3747 2.68666C11.1267 2.04666 11.5027 1.72666 11.8947 1.53866C12.3437 1.32396 12.835 1.21252 13.3327 1.21252C13.8304 1.21252 14.3217 1.32396 14.7707 1.53866C15.164 1.72532 15.54 2.04532 16.2907 2.68666C16.5907 2.94266 16.74 3.06932 16.9 3.17599C17.2664 3.42156 17.6779 3.59196 18.1107 3.67732C18.2987 3.71465 18.4947 3.73066 18.8867 3.76266C19.872 3.83999 20.364 3.87999 20.7747 4.02532C21.2438 4.19085 21.6698 4.45926 22.0217 4.81087C22.3735 5.16248 22.6422 5.58837 22.808 6.05732C22.9534 6.46932 22.992 6.96132 23.0707 7.94532C23.1014 8.33732 23.1174 8.53332 23.1547 8.72265C23.24 9.15465 23.4107 9.56666 23.656 9.93199C23.7627 10.092 23.8907 10.2413 24.1454 10.5413C24.7854 11.2933 25.1067 11.6693 25.2947 12.0613C25.5094 12.5103 25.6208 13.0017 25.6208 13.4993C25.6208 13.997 25.5094 14.4883 25.2947 14.9373C25.108 15.3293 24.7867 15.7053 24.1454 16.4573C23.9705 16.6507 23.8071 16.8542 23.656 17.0667C23.4106 17.4327 23.2402 17.8437 23.1547 18.276C23.1174 18.4653 23.1014 18.6613 23.0707 19.0533C22.992 20.0373 22.9534 20.5307 22.808 20.9413C22.6422 21.4103 22.3735 21.8362 22.0217 22.1878C21.6698 22.5394 21.2438 22.8078 20.7747 22.9733C20.364 23.12 19.872 23.1587 18.8867 23.236C18.4947 23.268 18.3 23.284 18.1107 23.3213C17.6779 23.4067 17.2664 23.5771 16.9 23.8227C16.688 23.9738 16.485 24.1371 16.292 24.312C15.54 24.952 15.164 25.272 14.772 25.46C14.3231 25.6747 13.8317 25.7861 13.334 25.7861C12.8364 25.7861 12.345 25.6747 11.896 25.46C11.5027 25.2733 11.1267 24.9533 10.376 24.312C10.1827 24.1371 9.9792 23.9737 9.7667 23.8227C9.40029 23.5771 8.98878 23.4067 8.55603 23.3213C8.29925 23.2777 8.04014 23.2492 7.78003 23.236C6.7947 23.1587 6.3027 23.1187 5.89203 22.9733C5.42297 22.8078 4.9969 22.5394 4.64506 22.1878C4.29322 21.8362 4.02453 21.4103 3.8587 20.9413C3.71336 20.5307 3.6747 20.0373 3.59603 19.0533C3.58326 18.7928 3.55521 18.5332 3.51203 18.276C3.4265 17.8437 3.2561 17.4327 3.0107 17.0667C2.90403 16.9067 2.77603 16.7573 2.52136 16.4573C1.88136 15.7053 1.56003 15.3293 1.37203 14.9373C1.15733 14.4883 1.0459 13.997 1.0459 13.4993C1.0459 13.0017 1.15733 12.5103 1.37203 12.0613C1.56003 11.6693 1.88003 11.2933 2.52136 10.5413C2.77603 10.2413 2.90403 10.092 3.0107 9.93199C3.2561 9.56598 3.4265 9.15494 3.51203 8.72265C3.54936 8.53332 3.56536 8.33732 3.59603 7.94532C3.6747 6.96132 3.71336 6.46932 3.8587 6.05732C4.02467 5.58823 4.29357 5.16225 4.64564 4.81063C4.99772 4.45902 5.42406 4.19068 5.89336 4.02532C6.30403 3.87999 6.79603 3.83999 7.78136 3.76266C8.17336 3.73066 8.36803 3.71465 8.55736 3.67732C8.99011 3.59196 9.40162 3.42156 9.76803 3.17599C9.92803 3.06932 10.076 2.94266 10.3747 2.68666Z" stroke="#A5AEB3" stroke-width="2"/>
<path d="M9.3335 17.5L17.3335 9.5" stroke="#A5AEB3" stroke-linecap="round"/>
<path d="M17.9998 16.8334C17.9998 17.187 17.8594 17.5261 17.6093 17.7762C17.3593 18.0262 17.0201 18.1667 16.6665 18.1667C16.3129 18.1667 15.9737 18.0262 15.7237 17.7762C15.4736 17.5261 15.3332 17.187 15.3332 16.8334C15.3332 16.4798 15.4736 16.1406 15.7237 15.8906C15.9737 15.6405 16.3129 15.5 16.6665 15.5C17.0201 15.5 17.3593 15.6405 17.6093 15.8906C17.8594 16.1406 17.9998 16.4798 17.9998 16.8334ZM11.3332 10.1667C11.3332 10.5203 11.1927 10.8595 10.9426 11.1095C10.6926 11.3596 10.3535 11.5 9.99984 11.5C9.64622 11.5 9.30708 11.3596 9.05703 11.1095C8.80698 10.8595 8.6665 10.5203 8.6665 10.1667C8.6665 9.81309 8.80698 9.47395 9.05703 9.2239C9.30708 8.97385 9.64622 8.83337 9.99984 8.83337C10.3535 8.83337 10.6926 8.97385 10.9426 9.2239C11.1927 9.47395 11.3332 9.81309 11.3332 10.1667Z" fill="#A5AEB3"/>
</svg>
