<svg width="27" height="28" viewBox="0 0 27 28" fill="none" xmlns="http://www.w3.org/2000/svg">
<path d="M10.3747 3.18666C11.1267 2.54666 11.5027 2.22666 11.8947 2.03866C12.3437 1.82396 12.835 1.71252 13.3327 1.71252C13.8304 1.71252 14.3217 1.82396 14.7707 2.03866C15.164 2.22532 15.54 2.54532 16.2907 3.18666C16.5907 3.44266 16.74 3.56932 16.9 3.67599C17.2664 3.92156 17.6779 4.09196 18.1107 4.17732C18.2987 4.21465 18.4947 4.23066 18.8867 4.26266C19.872 4.33999 20.364 4.37999 20.7747 4.52532C21.2438 4.69085 21.6698 4.95926 22.0217 5.31087C22.3735 5.66248 22.6422 6.08837 22.808 6.55732C22.9534 6.96932 22.992 7.46132 23.0707 8.44532C23.1014 8.83732 23.1174 9.03332 23.1547 9.22265C23.24 9.65465 23.4107 10.0667 23.656 10.432C23.7627 10.592 23.8907 10.7413 24.1454 11.0413C24.7854 11.7933 25.1067 12.1693 25.2947 12.5613C25.5094 13.0103 25.6208 13.5017 25.6208 13.9993C25.6208 14.497 25.5094 14.9883 25.2947 15.4373C25.108 15.8293 24.7867 16.2053 24.1454 16.9573C23.9705 17.1507 23.8071 17.3542 23.656 17.5667C23.4106 17.9327 23.2402 18.3437 23.1547 18.776C23.1174 18.9653 23.1014 19.1613 23.0707 19.5533C22.992 20.5373 22.9534 21.0307 22.808 21.4413C22.6422 21.9103 22.3735 22.3362 22.0217 22.6878C21.6698 23.0394 21.2438 23.3078 20.7747 23.4733C20.364 23.62 19.872 23.6587 18.8867 23.736C18.4947 23.768 18.3 23.784 18.1107 23.8213C17.6779 23.9067 17.2664 24.0771 16.9 24.3227C16.688 24.4738 16.485 24.6371 16.292 24.812C15.54 25.452 15.164 25.772 14.772 25.96C14.3231 26.1747 13.8317 26.2861 13.334 26.2861C12.8364 26.2861 12.345 26.1747 11.896 25.96C11.5027 25.7733 11.1267 25.4533 10.376 24.812C10.1827 24.6371 9.9792 24.4737 9.7667 24.3227C9.40029 24.0771 8.98878 23.9067 8.55603 23.8213C8.29925 23.7777 8.04014 23.7492 7.78003 23.736C6.7947 23.6587 6.3027 23.6187 5.89203 23.4733C5.42297 23.3078 4.9969 23.0394 4.64506 22.6878C4.29322 22.3362 4.02453 21.9103 3.8587 21.4413C3.71336 21.0307 3.6747 20.5373 3.59603 19.5533C3.58326 19.2928 3.55521 19.0332 3.51203 18.776C3.4265 18.3437 3.2561 17.9327 3.0107 17.5667C2.90403 17.4067 2.77603 17.2573 2.52136 16.9573C1.88136 16.2053 1.56003 15.8293 1.37203 15.4373C1.15733 14.9883 1.0459 14.497 1.0459 13.9993C1.0459 13.5017 1.15733 13.0103 1.37203 12.5613C1.56003 12.1693 1.88003 11.7933 2.52136 11.0413C2.77603 10.7413 2.90403 10.592 3.0107 10.432C3.2561 10.066 3.4265 9.65494 3.51203 9.22265C3.54936 9.03332 3.56536 8.83732 3.59603 8.44532C3.6747 7.46132 3.71336 6.96932 3.8587 6.55732C4.02467 6.08823 4.29357 5.66225 4.64564 5.31063C4.99772 4.95902 5.42406 4.69068 5.89336 4.52532C6.30403 4.37999 6.79603 4.33999 7.78136 4.26266C8.17336 4.23066 8.36803 4.21465 8.55736 4.17732C8.99011 4.09196 9.40162 3.92156 9.76803 3.67599C9.92803 3.56932 10.076 3.44266 10.3747 3.18666Z" fill="#FC5B00" stroke="#FC5B00" stroke-width="2"/>
<path d="M9.3335 18L17.3335 10Z" fill="white"/>
<path d="M9.3335 18L17.3335 10" stroke="white" stroke-linecap="round"/>
<path d="M17.6665 17.3334C17.6665 17.5986 17.5611 17.8529 17.3736 18.0405C17.1861 18.228 16.9317 18.3334 16.6665 18.3334C16.4013 18.3334 16.1469 18.228 15.9594 18.0405C15.7719 17.8529 15.6665 17.5986 15.6665 17.3334C15.6665 17.0682 15.7719 16.8138 15.9594 16.6263C16.1469 16.4387 16.4013 16.3334 16.6665 16.3334C16.9317 16.3334 17.1861 16.4387 17.3736 16.6263C17.5611 16.8138 17.6665 17.0682 17.6665 17.3334ZM10.9998 10.6667C10.9998 10.9319 10.8945 11.1863 10.7069 11.3738C10.5194 11.5614 10.2651 11.6667 9.99984 11.6667C9.73462 11.6667 9.48027 11.5614 9.29273 11.3738C9.10519 11.1863 8.99984 10.9319 8.99984 10.6667C8.99984 10.4015 9.10519 10.1471 9.29273 9.9596C9.48027 9.77206 9.73462 9.66671 9.99984 9.66671C10.2651 9.66671 10.5194 9.77206 10.7069 9.9596C10.8945 10.1471 10.9998 10.4015 10.9998 10.6667Z" fill="white" stroke="white" stroke-width="0.666667"/>
</svg>
