<svg width="32" height="32" viewBox="0 0 32 32" fill="none" xmlns="http://www.w3.org/2000/svg">
<path fill-rule="evenodd" clip-rule="evenodd" d="M16.0003 2.66699C17.7513 2.66698 19.4851 3.01185 21.1028 3.68191C22.7204 4.35197 24.1903 5.33409 25.4284 6.57221C26.6665 7.81032 27.6487 9.28018 28.3187 10.8979C28.9888 12.5155 29.3337 14.2493 29.3337 16.0003C29.3337 23.3641 23.3641 29.3337 16.0003 29.3337C8.63656 29.3337 2.66699 23.3641 2.66699 16.0003C2.66699 8.63656 8.63656 2.66699 16.0003 2.66699ZM17.3337 17.3337H14.667C11.3661 17.3337 8.53212 19.3329 7.3098 22.1867C9.2438 24.8986 12.4156 26.667 16.0003 26.667C19.5851 26.667 22.7568 24.8986 24.6909 22.1865C23.4686 19.3329 20.6346 17.3337 17.3337 17.3337ZM16.0003 6.66699C13.7912 6.66699 12.0003 8.45787 12.0003 10.667C12.0003 12.8761 13.7912 14.667 16.0003 14.667C18.2094 14.667 20.0003 12.8761 20.0003 10.667C20.0003 8.45787 18.2095 6.66699 16.0003 6.66699Z" stroke="#A5AEB3" stroke-width="1.5"/>
</svg>
